Coordinates
version=1
nRows=10
nColumns=40
inDegrees=yes

Units are S.I. units (second, meters, Newtons, ...)
If the header above contains a line with 'inDegrees', this indicates whether rotational values are in degrees (yes) or radians (no).

endheader
time	pelvis_tilt	pelvis_list	pelvis_rotation	pelvis_tx	pelvis_ty	pelvis_tz	hip_flexion_r	hip_adduction_r	hip_rotation_r	knee_angle_r	knee_angle_r_beta	ankle_angle_r	subtalar_angle_r	mtp_angle_r	hip_flexion_l	hip_adduction_l	hip_rotation_l	knee_angle_l	knee_angle_l_beta	ankle_angle_l	subtalar_angle_l	mtp_angle_l	lumbar_extension	lumbar_bending	lumbar_rotation	arm_flex_r	arm_add_r	arm_rot_r	elbow_flex_r	pro_sup_r	wrist_flex_r	wrist_dev_r	arm_flex_l	arm_add_l	arm_rot_l	elbow_flex_l	pro_sup_l	wrist_flex_l	wrist_dev_l
      0.00500000	     -2.96887300	      0.66277816	     -1.42552848	      0.27145669	      0.90557429	     -1.21685060	      0.72873347	    -18.09623800	    -37.91426027	      5.95097697	      0.10386414	     -8.71660723	     11.36998605	      0.00000000	      0.02612003	    -15.69255900	    -39.05757343	      3.74736040	      0.06540378	     -9.81291150	     19.53334808	      0.00000000	     11.47797958	      0.36382809	      0.72936340	     44.13079528	    -16.37001063	     44.13079528	     75.13084557	     44.96731429	      0.00000000	      0.00000000	     44.13079528	    -16.37001063	     44.13079528	     75.13084557	     44.96731429	      0.00000000	      0.00000000
      0.01000000	     -2.96551021	      0.69361930	     -1.42767165	      0.27140792	      0.90558881	     -1.21684829	      0.73519021	    -18.13435908	    -37.90322468	      5.96576246	      0.10412220	     -8.67095489	     11.36837412	      0.00000000	      0.02350498	    -15.65208227	    -39.05521715	      3.73055416	      0.06511045	     -9.85200893	     19.51068309	      0.00000000	     11.46480897	      0.34576467	      0.76878520	     44.20261053	    -16.19874161	     44.20261053	     75.10444037	     44.97779893	      0.00000000	      0.00000000	     44.20261053	    -16.19874161	     44.20261053	     75.10444037	     44.97779893	      0.00000000	      0.00000000
      0.01500000	     -2.96251899	      0.69696073	     -1.43267762	      0.27137774	      0.90558903	     -1.21683994	      0.73295927	    -18.13313325	    -37.88352272	      5.95119682	      0.10386798	     -8.69335894	     11.32831361	      0.00000000	      0.02131277	    -15.64727146	    -39.05712520	      3.72870271	      0.06507814	     -9.85539021	     19.49817057	      0.00000000	     11.45348078	      0.35443838	      0.80025392	     44.25861871	    -16.07855903	     44.25861871	     75.08918181	     44.98258584	      0.00000000	      0.00000000	     44.25861871	    -16.07855903	     44.25861871	     75.08918181	     44.98258584	      0.00000000	      0.00000000
      0.02000000	     -2.97419428	      0.73630388	     -1.45800068	      0.27135791	      0.90556588	     -1.21679656	      0.79142875	    -18.21023675	    -37.92818011	      6.04391329	      0.10548619	     -8.63782096	     11.45032403	      0.00000000	      0.00855946	    -15.58625763	    -39.06057111	      3.67277267	      0.06410198	     -9.92273353	     19.44785694	      0.00000000	     11.46419964	      0.33978443	      0.87822200	     44.29697489	    -16.00388121	     44.29697489	     75.08106926	     44.98454912	      0.00000000	      0.00000000	     44.29697489	    -16.00388121	     44.29697489	     75.08106926	     44.98454912	      0.00000000	      0.00000000
      0.02500000	     -2.96210822	      0.66900198	     -1.40302567	      0.27131851	      0.90558858	     -1.21688895	      0.71333229	    -18.09465360	    -37.91759251	      5.92254465	      0.10336790	     -8.71396205	     11.33051757	      0.00000000	      0.04853863	    -15.68989969	    -39.04593022	      3.76756779	      0.06575646	     -9.82777915	     19.51628641	      0.00000000	     11.45077839	      0.30207794	      0.63822720	     44.33043243	    -15.93637398	     44.33043243	     75.07317441	     44.98680729	      0.00000000	      0.00000000	     44.33043243	    -15.93637398	     44.33043243	     75.07317441	     44.98680729	      0.00000000	      0.00000000
      0.03000000	     -2.95916879	      0.67563098	     -1.40791989	      0.27126678	      0.90558938	     -1.21687478	      0.72607016	    -18.10966530	    -37.93427687	      5.94555280	      0.10376947	     -8.69291441	     11.36967782	      0.00000000	      0.04837827	    -15.68485500	    -39.05205041	      3.77190578	      0.06583217	     -9.81902612	     19.51074812	      0.00000000	     11.43619406	      0.31337189	      0.67949391	     44.38490935	    -15.83114854	     44.38490935	     75.06186190	     44.98944454	      0.00000000	      0.00000000	     44.38490935	    -15.83114854	     44.38490935	     75.06186190	     44.98944454	      0.00000000	      0.00000000
      0.03500000	     -2.93384873	      0.58785201	     -1.36538936	      0.27116087	      0.90562104	     -1.21689936	      0.64065556	    -17.97098146	    -37.91741070	      5.82266133	      0.10162461	     -8.76593752	     11.30622382	      0.00000000	      0.11796351	    -15.85794582	    -39.09981453	      4.00588744	      0.06991593	     -9.60129324	     19.70849035	      0.00000000	     11.38474963	      0.36601000	      0.60753632	     44.40598625	    -15.79326406	     44.40598625	     75.05819284	     44.99028452	      0.00000000	      0.00000000	     44.40598625	    -15.79326406	     44.40598625	     75.05819284	     44.99028452	      0.00000000	      0.00000000
      0.04000000	     -2.95341102	      0.67915332	     -1.42759159	      0.27123177	      0.90558981	     -1.21686679	      0.73168962	    -18.11529506	    -37.92314001	      5.94003642	      0.10367319	     -8.73907077	     11.33564220	      0.00000000	      0.02131221	    -15.66628393	    -39.05569814	      3.73502402	      0.06518847	     -9.82932186	     19.50236495	      0.00000000	     11.42001285	      0.38669055	      0.84301859	     44.48712754	    -15.64359186	     44.48712754	     75.04278674	     44.99426120	      0.00000000	      0.00000000	     44.48712754	    -15.64359186	     44.48712754	     75.04278674	     44.99426120	      0.00000000	      0.00000000
      0.04500000	     -2.95135688	      0.67932530	     -1.42486218	      0.27113492	      0.90560682	     -1.21684133	      0.73563570	    -18.11040491	    -37.90187497	      5.94019026	      0.10367588	     -8.71361160	     11.31074216	      0.00000000	      0.04117762	    -15.67842730	    -39.05609320	      3.76644348	      0.06573684	     -9.82880166	     19.50490697	      0.00000000	     11.40320366	      0.27158848	      0.64607304	     44.53193525	    -15.56799133	     44.53193525	     75.03570227	     44.99597274	      0.00000000	      0.00000000	     44.53193525	    -15.56799133	     44.53193525	     75.03570227	     44.99597274	      0.00000000	      0.00000000
      0.05000000	     -3.02081453	      0.71127357	     -1.38104507	      0.27108661	      0.90549699	     -1.21692927	      0.83918868	    -18.19375823	    -38.02403783	      6.05621177	      0.10570084	     -8.71589132	     11.38827173	      0.00000000	      0.17790431	    -15.68117025	    -39.09175970	      3.88124548	      0.06774051	     -9.78372230	     19.66881828	      0.00000000	     11.47306816	      0.26460925	      0.66568852	     44.53598914	    -15.56068785	     44.53598914	     75.03495577	     44.99613753	      0.00000000	      0.00000000	     44.53598914	    -15.56068785	     44.53598914	     75.03495577	     44.99613753	      0.00000000	      0.00000000
